<svg xmlns="http://www.w3.org/2000/svg" viewBox="0 0 300 65" enable-background="new 0 0 300 65"><g><linearGradient id="a" gradientUnits="userSpaceOnUse" x1="132.622" y1="1091.651" x2="132.622" y2="1073.42" gradientTransform="matrix(2.835 0 0 -2.835 -346.099 3100.476)"><stop offset="0" stop-color="#6E767B"/><stop offset="1" stop-color="#303434"/></linearGradient><path fill="url(#a)" d="M28 57.8l25.6-36.2-11-15.5-36.5 51.7z"/><linearGradient id="b" gradientUnits="userSpaceOnUse" x1="144.89" y1="1091.651" x2="144.89" y2="1073.42" gradientTransform="matrix(2.835 0 0 -2.835 -346.099 3100.476)"><stop offset="0" stop-color="#00AEEB"/><stop offset="1" stop-color="#4A63A6"/></linearGradient><path fill="url(#b)" d="M57.3 57.8l25.6-36.2-11-15.5-25.6 36.2z"/><linearGradient id="c" gradientUnits="userSpaceOnUse" x1="154.631" y1="1084.698" x2="154.631" y2="1073.42" gradientTransform="matrix(2.835 0 0 -2.835 -346.099 3100.476)"><stop offset="0" stop-color="#00AEEB"/><stop offset="1" stop-color="#4A63A6"/></linearGradient><path fill="url(#c)" d="M87 57.8l-11.5-16.5 10.9-15.5 8.6 12.1 13.9 19.9z"/><linearGradient id="d" gradientUnits="userSpaceOnUse" x1="194.936" y1="1091.818" x2="194.936" y2="1079.599" gradientTransform="matrix(2.835 0 0 -2.835 -346.099 3100.476)"><stop offset="0" stop-color="#5C6367"/><stop offset="1" stop-color="#303434"/></linearGradient><path fill="url(#d)" d="M119.4 39.3v-32.8h11.6l4.3 16c.4 1.4.7 2.8 1.1 4.1.3 1.3.6 2.6.8 3.9.3-1.3.6-2.7 1-4.2s.8-3 1.2-4.7l4.1-15.1h11.5v32.9h-7.7v-14.6c0-1 0-2.5.1-4.3.1-1.9.1-4 .2-6.4l-6.3 25.3h-8.3l-6.2-25.4c.1 2.9.2 5.5.2 7.9.1 2.3.1 4.1.1 5.5v12h-7.7zm49.3-16.4c0 3.4.7 5.9 2 7.7 1.4 1.8 3.3 2.7 5.9 2.7 2.6 0 4.5-.9 5.9-2.7 1.4-1.8 2.1-4.4 2.1-7.7s-.7-5.9-2.1-7.7c-1.4-1.8-3.3-2.7-5.9-2.7-2.5 0-4.5.9-5.9 2.7-1.4 1.8-2 4.4-2 7.7zm-8.6 0c0-5.3 1.5-9.6 4.4-12.7 2.9-3.1 7-4.7 12-4.7 5.1 0 9.1 1.6 12.1 4.7s4.5 7.3 4.5 12.7c0 5.3-1.5 9.5-4.5 12.7-3 3.1-7 4.7-12.1 4.7s-9.1-1.6-12-4.7c-2.9-3.1-4.4-7.3-4.4-12.7zm45.3 0c0 3.4.7 5.9 2 7.7 1.4 1.8 3.3 2.7 5.9 2.7 2.6 0 4.5-.9 5.9-2.7 1.4-1.8 2.1-4.4 2.1-7.7s-.7-5.9-2.1-7.7c-1.4-1.8-3.3-2.7-5.9-2.7-2.5 0-4.5.9-5.9 2.7-1.3 1.8-2 4.4-2 7.7zm-8.6 0c0-5.3 1.5-9.6 4.4-12.7 2.9-3.1 7-4.7 12-4.7 5.1 0 9.1 1.6 12.1 4.7s4.5 7.3 4.5 12.7c0 5.3-1.5 9.5-4.5 12.7-3 3.1-7 4.7-12.1 4.7s-9.1-1.6-12-4.7c-2.9-3.1-4.4-7.3-4.4-12.7zm46.2 3.1v13.3h-8v-33.6h14.8c2.7 0 4.9.3 6.6 1 1.6.6 3 1.8 4.1 3.5 1.1 1.7 1.6 3.6 1.6 5.6 0 4-1.9 6.9-5.8 8.7l6.2 14.9h-8.7l-5.2-13.4h-5.6zm0-14.3v8.6h4.8c1.6 0 2.7-.1 3.4-.3.7-.2 1.3-.7 1.9-1.5.6-.8.8-1.6.8-2.6 0-.9-.3-1.8-.8-2.5-.6-.7-1.2-1.2-1.8-1.4-.7-.2-1.9-.3-3.7-.3h-4.6zm25.1 27.6v-32.8h25v6.7h-16.6v5.8h15.1v6.6h-15.1v7h17.1v6.7h-25.5z"/><linearGradient id="e" gradientUnits="userSpaceOnUse" x1="194.838" y1="1077.27" x2="194.838" y2="1073.233" gradientTransform="matrix(2.835 0 0 -2.835 -346.099 3100.476)"><stop offset="0" stop-color="#5C6367"/><stop offset="1" stop-color="#303434"/></linearGradient><path fill="url(#e)" d="M121.6 52.2h2.2c.6 0 1-.1 1.3-.4.3-.2.4-.6.4-1.2 0-.5-.1-.9-.4-1.2-.3-.3-.6-.4-1.2-.4h-2.3v3.2zm0 1.9v3.9h-2.2v-10.9h4.8c1.1 0 2 .3 2.6.9.6.6.9 1.5.9 2.6s-.3 2-.9 2.6c-.6.6-1.4.9-2.5.9h-2.7zm8.8 3.9v-10.9h2.2v8.9h5.3v2h-7.5zm9.3-10.9h2.3v6.8c0 .8.2 1.5.5 1.8.3.4.9.6 1.6.6.7 0 1.3-.2 1.6-.6.3-.4.5-1 .5-1.8v-6.8h2.2v7.1c0 1.3-.4 2.4-1.1 3.1-.7.7-1.8 1.1-3.2 1.1-1.4 0-2.5-.4-3.2-1.1-.7-.7-1.1-1.7-1.1-3.1v-7.1h-.1zm11.9 10.9v-10.9h3.3l2.2 8.3 2.1-8.3h3.3v10.9h-2.1v-8.8l-2.2 8.8h-2.3l-2.2-8.8v8.8h-2.1zm16.2-2h2.6c.6 0 1.1-.1 1.4-.3.3-.2.4-.6.4-1.1 0-.5-.1-.9-.4-1.1-.3-.2-.7-.3-1.4-.3h-2.6v2.8zm0-4.7h2.5c.6 0 1-.1 1.2-.3.3-.2.4-.5.4-.9s-.1-.7-.4-.9c-.2-.2-.7-.3-1.2-.3h-2.5v2.4zm-2.1 6.7v-10.9h5.1c1.1 0 2 .2 2.5.7.6.5.9 1.1.9 2 0 .5-.1 1-.3 1.4-.2.4-.5.7-1 .9.6.2 1 .6 1.3 1 .3.4.4 1 .4 1.6 0 1.1-.3 1.9-1 2.4-.7.6-1.7.9-2.9.9h-5zm11.6 0v-10.9h2.2v10.9h-2.2zm5.5 0v-10.9h2.3l4.4 7.5v-7.5h2.2v10.9h-2.3l-4.4-7.5v7.5h-2.2zm20-1.3c-.4.5-.9.9-1.4 1.2-.5.3-1.1.4-1.8.4-1.5 0-2.7-.5-3.7-1.6-.9-1.1-1.4-2.4-1.4-4.2 0-1.7.5-3.1 1.4-4.2.9-1 2.2-1.6 3.8-1.6 1.4 0 2.5.3 3.3 1 .9.7 1.4 1.5 1.5 2.7h-2.3c-.1-.6-.4-1-.8-1.3-.4-.3-1-.4-1.7-.4-.9 0-1.6.3-2.1 1s-.8 1.6-.8 2.8c0 1.2.3 2.1.8 2.8.5.7 1.3 1 2.2 1 .7 0 1.3-.2 1.8-.6.5-.4.8-1 .9-1.7h-2.5v-1.9h4.5v5.9h-1.5l-.2-1.3zm18.6-2.4c-.1 1.2-.6 2.2-1.4 2.9-.9.7-2 1.1-3.4 1.1-1.6 0-2.9-.5-3.7-1.5-.9-1-1.3-2.4-1.3-4.2 0-1.8.5-3.3 1.4-4.2.9-1 2.2-1.5 3.9-1.5 1.4 0 2.5.3 3.3 1 .8.7 1.2 1.6 1.3 2.9h-2.2c-.1-.6-.3-1.1-.8-1.4-.4-.3-1-.5-1.7-.5-1 0-1.7.3-2.2 1-.5.6-.8 1.6-.8 2.8 0 1.2.3 2.1.8 2.7.5.6 1.2 1 2.2 1 .7 0 1.2-.2 1.7-.5.4-.3.7-.8.8-1.5h2.1v-.1zm4.5-1.7c0 1.2.3 2.1.8 2.8.5.7 1.3 1 2.2 1 1 0 1.7-.3 2.3-1 .5-.7.8-1.6.8-2.8 0-1.2-.3-2.1-.8-2.8-.5-.7-1.3-1-2.3-1-1 0-1.7.3-2.2 1-.5.6-.8 1.6-.8 2.8zm-2.2 0c0-1.8.5-3.1 1.4-4.2 1-1 2.2-1.5 3.9-1.5 1.6 0 2.9.5 3.9 1.5s1.4 2.4 1.4 4.2c0 1.8-.5 3.1-1.4 4.2-1 1-2.3 1.5-3.9 1.5s-2.9-.5-3.9-1.5c-1-1.1-1.4-2.5-1.4-4.2zm13.3 5.4v-10.9h3.3l2.2 8.3 2.1-8.3h3.3v10.9h-2.1v-8.8l-2.2 8.8h-2.3l-2.2-8.8v8.8h-2.1zm16.3-5.8h2.2c.6 0 1-.1 1.3-.4.3-.2.4-.6.4-1.2 0-.5-.1-.9-.4-1.2-.3-.3-.6-.4-1.2-.4h-2.3v3.2zm0 1.9v3.9h-2.2v-10.9h4.8c1.1 0 2 .3 2.6.9.6.6.9 1.5.9 2.6s-.3 2-.9 2.6c-.6.6-1.4.9-2.5.9h-2.7zm11.9-4.8l-1.5 4.6h3l-1.5-4.6zm-1.3-2.2h2.6l3.9 10.9h-2.4l-.7-2.2h-4.2l-.7 2.2h-2.4l3.9-10.9zm8.6 10.9v-10.9h2.3l4.4 7.5v-7.5h2.2v10.9h-2.3l-4.4-7.5v7.5h-2.2zm16.9 0h-2.2v-4l-3.9-6.8h2.7l2.3 4.7 2.1-4.7h2.6l-3.6 6.8v4z"/></g></svg>